<svg xmlns="http://www.w3.org/2000/svg" version="1.1" xmlns:xlink="http://www.w3.org/1999/xlink" xmlns:svgjs="http://svgjs.dev/svgjs" width="1000" height="1000" viewBox="0 0 1000 1000"><rect width="1000" height="1000" fill="#000000"></rect><g transform="matrix(0.7,0,0,0.7,149.57575757575756,282.1265587044535)"><svg viewBox="0 0 396 247" data-background-color="#ffffff" preserveAspectRatio="xMidYMid meet" height="623" width="1000" xmlns="http://www.w3.org/2000/svg" xmlns:xlink="http://www.w3.org/1999/xlink"><g id="tight-bounds" transform="matrix(1,0,0,1,0.2400000000000091,-0.09999999999999432)"><svg viewBox="0 0 395.52 247.2" height="247.2" width="395.52"><g><svg></svg></g><g><svg viewBox="0 0 395.52 247.2" height="247.2" width="395.52"><g transform="matrix(1,0,0,1,75.54432,92.33803285808872)"><svg viewBox="0 0 244.43135999999998 62.52393428382255" height="62.52393428382255" width="244.43135999999998"><g><svg viewBox="0 0 244.43135999999998 62.52393428382255" height="62.52393428382255" width="244.43135999999998"><g><svg viewBox="0 0 244.43135999999998 62.52393428382255" height="62.52393428382255" width="244.43135999999998"><g><svg viewBox="0 0 244.43135999999998 62.52393428382255" height="62.52393428382255" width="244.43135999999998"><g><svg viewBox="0 0 244.43135999999998 62.52393428382255" height="62.52393428382255" width="244.43135999999998"><g><svg viewBox="0 0 244.43135999999998 62.52393428382255" height="62.52393428382255" width="244.43135999999998"><g transform="matrix(1,0,0,1,0,0)"><svg width="244.43135999999998" viewBox="-7.55 -37.25 226.51000000000002 57.95" height="62.52393428382255" data-palette-color="#085f63"><path d="M21.55-30.95L21.8-30.75Q21.8-30.65 21.45-29.88 21.1-29.1 12.15-13.15L12.15-13.15Q19.55-16.2 25.35-21.53 31.15-26.85 31.15-30.8L31.15-30.8Q31.15-35.55 22.25-35.55L22.25-35.55Q17.05-35.55 10.5-33.15 3.95-30.75-0.75-27.05-5.45-23.35-5.45-20.05L-5.45-20.05Q-5.45-17.25-1.95-17.25L-1.95-17.25Q1-17.25 5.03-19.33 9.05-21.4 12.25-24.85L12.25-24.85Q12.65-25.5 12.98-25.5 13.3-25.5 13.3-25.15L13.3-25.15Q13.3-24 10.35-21.63 7.4-19.25 3.25-17.28-0.9-15.3-3.7-15.3L-3.7-15.3Q-7.55-15.3-7.55-19.25L-7.55-19.25Q-7.55-22.7-2.13-27 3.3-31.3 10.85-34.27 18.4-37.25 24.1-37.25L24.1-37.25Q33.6-37.25 33.6-32L33.6-32Q33.6-27.45 26.88-21.3 20.15-15.15 11.4-11.8L11.4-11.8Q6.4-2.85 4.75-0.05L4.75-0.05Q4.45 0.6 3.65 0.95 2.85 1.3 2.43 1.3 2 1.3 2 1.05L2 1.05 8.65-10.85Q5.5-9.9 2.8-9.6L2.8-9.6Q2.5-9.6 2.5-10.23 2.5-10.85 3.05-10.9L3.05-10.9Q6-11.05 9.4-12.15L9.4-12.15 19.4-30Q19.55-30.4 20.3-30.68 21.05-30.95 21.55-30.95L21.55-30.95ZM22.1-15.25L22.1-15.25Q22.85-15.25 22.85-14.5 22.85-13.75 22.15-12.98 21.45-12.2 20.6-12.2L20.6-12.2Q19.9-12.2 19.9-13.18 19.9-14.15 20.7-14.7 21.5-15.25 22.1-15.25ZM17.4-8.65L17.4-8.65Q17.65-9.05 18.1-9.05 18.55-9.05 19-8.6L19-8.6Q19-8.4 18.35-7.7 17.7-7 16.15-4.58 14.6-2.15 14.6-1.35L14.6-1.35Q14.6-0.85 15.35-0.75L15.35-0.75Q16.35-0.75 18.45-1.73 20.55-2.7 22.15-3.7L22.15-3.7 23.75-4.7Q23.8-4.6 23.8-4.3 23.8-4 23.35-3.8L23.35-3.8Q16.6 0.8 13.95 0.8L13.95 0.8Q12.65 0.8 12.65-0.5 12.65-1.8 14.07-4.13 15.5-6.45 17.4-8.65ZM22.29-3.8L22.29-3.8Q23.24-4.35 24.79-5.55L24.79-5.55Q28.59-8.55 28.84-8.55L28.84-8.55Q29.59-8.55 29.59-7.9 29.59-7.25 28.82-5.9 28.04-4.55 27.07-3.1 26.09-1.65 25.95-1.35L25.95-1.35Q25.99-1.3 26.17-1.3 26.34-1.3 28.14-2.63 29.95-3.95 31.89-5.43 33.84-6.9 34.2-7.13 34.55-7.35 34.84-7.35L34.84-7.35Q35.45-7.3 35.45-6.65L35.45-6.65Q35.45-6.4 33.74-4.13 32.05-1.85 32.05-1.2L32.05-1.2Q32.05-0.75 33.12-0.75 34.2-0.75 36.3-1.73 38.39-2.7 39.99-3.7L39.99-3.7 41.59-4.7Q41.64-4.6 41.64-4.3 41.64-4 41.2-3.8L41.2-3.8Q34.45 0.8 31.79 0.8L31.79 0.8Q30.24 0.8 30.24-0.4L30.24-0.4Q30.24-1.55 30.92-2.6 31.59-3.65 32.09-4.38 32.59-5.1 32.59-5.15L32.59-5.15Q30.29-3.5 27.14-1.2 23.99 1.1 23.59 1.1L23.59 1.1Q23.29 1.1 23.29 0.4 23.29-0.3 25.27-3.25 27.24-6.2 27.24-6.4 27.24-6.6 27.14-6.6L27.14-6.6 26.64-6.35 24.14-4.35Q23.89-4.15 23.19-3.7 22.49-3.25 22.32-3.25 22.14-3.25 22.14-3.48 22.14-3.7 22.29-3.8ZM41.49-4.85L41.49-4.85Q38.49-4.85 38.49-6.15L38.49-6.15Q38.49-7.7 42.04-9.83 45.59-11.95 48.44-11.95L48.44-11.95Q49.89-11.95 49.89-11.05L49.89-11.05Q49.89-10.55 49.14-9.95 48.39-9.35 47.69-9 46.99-8.65 46.89-8.65L46.89-8.65Q46.59-8.65 46.49-8.9L46.49-8.9Q46.39-9.25 47.02-9.63 47.64-10 47.64-10.45 47.64-10.9 46.52-10.9 45.39-10.9 42.99-9.33 40.59-7.75 40.59-6.75L40.59-6.75Q40.59-6 42.34-6L42.34-6Q42.64-6 43.44-6.05 44.24-6.1 44.24-5.85 44.24-5.6 41.77-4.05 39.29-2.5 39.29-1.4L39.29-1.4Q39.29-0.15 40.92-0.15 42.54-0.15 44.59-1L44.59-1Q47.89-2.45 50.59-4.1L50.59-4.1 51.54-4.7Q51.59-4.6 51.59-4.3 51.59-4 51.14-3.8L51.14-3.8Q48.49-2 45.34-0.38 42.19 1.25 39.67 1.25 37.14 1.25 37.14-0.43 37.14-2.1 41.49-4.85ZM56.24-1.2L56.74-1.4Q59.14-2.4 61.89-4.1L61.89-4.1 62.84-4.7Q62.89-4.6 62.89-4.3 62.89-4 62.44-3.8L62.44-3.8Q59.79-2 57.14-0.65 54.49 0.7 52.24 0.7L52.24 0.7Q49.39 0.7 49.39-1.35L49.39-1.35Q49.39-3.8 52.81-6.88 56.24-9.95 59.59-9.95L59.59-9.95Q60.99-9.95 60.99-8.75L60.99-8.75Q60.99-8.05 59.74-7L59.74-7Q57.99-5.55 57.54-5.55 57.09-5.55 57.09-5.95L57.09-5.95Q57.09-6.1 57.29-6.25L57.29-6.25Q57.79-6.55 58.41-7.18 59.04-7.8 59.04-8.25L59.04-8.25Q59.04-8.95 58.39-8.95L58.39-8.95Q56.99-8.95 54.29-6.43 51.59-3.9 51.59-2.35L51.59-2.35Q51.59-0.6 53.49-0.6L53.49-0.6Q54.74-0.6 56.24-1.2L56.24-1.2ZM61.74-3.35L61.74-3.35Q61.54-3.25 61.36-3.25 61.19-3.25 61.19-3.45 61.19-3.65 61.34-3.8L61.34-3.8Q63.39-4.95 65.84-7.55L65.84-7.55Q63.59-8.25 63.59-9.53 63.59-10.8 65.29-12.38 66.99-13.95 68.49-13.95L68.49-13.95Q69.49-13.95 69.49-12.75L69.49-12.75Q69.49-10.9 67.64-8.8L67.64-8.8Q70.04-8.4 70.04-7.65L70.04-7.65Q70.04-6.65 69.16-6.13 68.29-5.6 67.14-4.25 65.99-2.9 65.99-1.55L65.99-1.55Q65.99-1.25 66.19-1 66.39-0.75 67.04-0.75 67.69-0.75 69.79-1.73 71.89-2.7 73.49-3.7L73.49-3.7 75.09-4.7Q75.14-4.6 75.14-4.3 75.14-4 74.69-3.8L74.69-3.8Q67.94 0.8 65.29 0.8L65.29 0.8Q63.99 0.8 63.99-0.5L63.99-0.5Q63.99-1.55 64.71-2.7 65.44-3.85 66.31-4.6 67.19-5.35 67.91-6.03 68.64-6.7 68.64-6.9 68.64-7.1 68.01-7.15 67.39-7.2 66.39-7.4L66.39-7.4Q63.64-4.45 61.74-3.35ZM64.84-10.3L64.84-10.3Q64.84-9.3 67.04-8.9L67.04-8.9Q68.34-10.5 68.34-11.68 68.34-12.85 67.59-12.85 66.84-12.85 65.84-11.98 64.84-11.1 64.84-10.3ZM76.44-4.85L76.44-4.85Q73.44-4.85 73.44-6.15L73.44-6.15Q73.44-7.7 76.98-9.83 80.54-11.95 83.39-11.95L83.39-11.95Q84.84-11.95 84.84-11.05L84.84-11.05Q84.84-10.55 84.09-9.95 83.34-9.35 82.64-9 81.94-8.65 81.84-8.65L81.84-8.65Q81.54-8.65 81.44-8.9L81.44-8.9Q81.34-9.25 81.96-9.63 82.59-10 82.59-10.45 82.59-10.9 81.46-10.9 80.34-10.9 77.94-9.33 75.54-7.75 75.54-6.75L75.54-6.75Q75.54-6 77.29-6L77.29-6Q77.59-6 78.39-6.05 79.19-6.1 79.19-5.85 79.19-5.6 76.71-4.05 74.23-2.5 74.23-1.4L74.23-1.4Q74.23-0.15 75.86-0.15 77.48-0.15 79.54-1L79.54-1Q82.84-2.45 85.54-4.1L85.54-4.1 86.49-4.7Q86.54-4.6 86.54-4.3 86.54-4 86.09-3.8L86.09-3.8Q83.44-2 80.29-0.38 77.14 1.25 74.61 1.25 72.09 1.25 72.09-0.43 72.09-2.1 76.44-4.85ZM88.08-5.45L88.08-5.45Q85.68-3.25 85.03-3.25L85.03-3.25Q84.83-3.25 84.83-3.45 84.83-3.65 84.98-3.8L84.98-3.8Q86.18-4.45 87.78-5.9L87.78-5.9Q87.53-6.5 87.53-7.2L87.53-7.2Q87.53-8.9 89.28-10.45 91.03-12 92.23-12L92.23-12Q92.88-12 92.88-11.38 92.88-10.75 90.88-8.35L90.88-8.35Q90.68-8.1 90.43-7.85 90.18-7.6 89.91-7.28 89.63-6.95 89.48-6.8L89.48-6.8Q89.73-6.55 90.38-5.93 91.03-5.3 91.43-4.9L91.43-4.9Q92.53-3.8 92.53-2.15 92.53-0.5 90.48 0.73 88.43 1.95 86.21 1.95 83.98 1.95 83.98 0.63 83.98-0.7 86.03-1.8 88.08-2.9 90.33-3.3L90.33-3.3Q90.03-3.7 89.21-4.35 88.38-5 88.08-5.45ZM90.68-2.7Q88.98-2.5 87.48-1.78 85.98-1.05 85.98-0.08 85.98 0.9 87.36 0.9 88.73 0.9 89.81 0.25 90.88-0.4 90.88-1.2 90.88-2 90.68-2.7L90.68-2.7ZM89.13-7.2L89.13-7.2 90.43-8.6Q91.73-10.15 91.73-10.48 91.73-10.8 91.43-10.8L91.43-10.8Q90.58-10.8 89.68-9.98 88.78-9.15 88.78-8.38 88.78-7.6 89.13-7.2ZM95.98-16.5L95.98-16.5Q99.38-16.5 102.68-16.55L102.68-16.55Q108.03-23.4 109.98-23.4L109.98-23.4Q110.68-23.4 110.68-22.65L110.68-22.65Q110.68-20.25 107.18-16.65L107.18-16.65 110.98-16.7Q114.78-16.85 115.63-16.85 116.48-16.85 116.48-16.65L116.48-16.65Q116.48-15.7 115.18-15.65L115.18-15.65 105.78-15.25Q103.33-12.95 99.73-10.4L99.73-10.4Q95.93-4.15 95.93-1.9L95.93-1.9Q95.93-0.75 97.41-0.75 98.88-0.75 102.08-2.35L102.08-2.35 106.13-4.7Q106.18-4.6 106.18-4.3 106.18-4 105.73-3.8L105.73-3.8Q104.13-2.7 102.23-1.6L102.23-1.6Q98.18 0.45 96.03 0.45L96.03 0.45Q95.03 0.45 94.48 0.05 93.93-0.35 93.88-0.75L93.88-0.75 93.78-1.15Q93.78-2.85 96.08-6.88 98.38-10.9 101.53-15.1L101.53-15.1Q99.13-15 96.98-15 94.83-15 94.83-15.5L94.83-15.5Q94.83-16.45 95.98-16.5ZM109.13-21.6L109.13-21.6Q109.13-21.85 108.93-21.85L108.93-21.85Q107.78-21.85 103.83-16.6L103.83-16.6 106.33-16.6Q109.13-19.65 109.13-21.6ZM104.93-15.2L104.93-15.2Q103.33-15.2 102.78-15.15L102.78-15.15Q102.33-14.5 101.53-13.25 100.73-12 100.43-11.55L100.43-11.55Q103.03-13.45 104.93-15.2ZM151.88-4.2L151.88-4.2Q151.88-2.25 149.23-1.6L149.23-1.6Q149.08-1.6 149.08-1.8 149.08-2 149.43-2.25L149.43-2.25Q150.43-3 150.43-3.9L150.43-3.9Q150.43-5.65 147.63-6.45L147.63-6.45Q143.93-1.9 137.35 1.1 130.78 4.1 125.68 4.1 120.58 4.1 120.58 2L120.58 2Q120.58 0.25 124.05-2.18 127.53-4.6 133-6.43 138.48-8.25 143.33-8.25L143.33-8.25Q145.73-8.25 147.43-7.9L147.43-7.9Q148.98-10.65 148.98-13.65L148.98-13.65Q148.98-15.4 147.43-16.57 145.88-17.75 143.28-17.75 140.68-17.75 138.33-16.7L138.33-16.7Q137.83-16.35 137.53-16.35L137.53-16.35Q136.98-16.35 136.98-16.63 136.98-16.9 137.73-17.3L137.73-17.3Q138.83-17.65 141.95-20 145.08-22.35 148.05-25.73 151.03-29.1 151.03-31.4L151.03-31.4Q151.03-35.15 142.93-35.15L142.93-35.15Q137.23-35.15 130.8-32.83 124.38-30.5 119.98-26.78 115.58-23.05 115.58-19.5L115.58-19.5Q115.58-17.6 117.93-17.6L117.93-17.6Q121.28-17.6 124.53-19.28 127.78-20.95 133.03-25.35L133.03-25.35Q133.68-26.1 133.93-26.1L133.93-26.1Q134.48-26.1 134.48-25.75L134.48-25.75Q134.48-25.65 134.13-25.05L134.13-25.05Q132.83-23.75 130.48-21.9 128.13-20.05 126.13-18.8 124.13-17.55 121.6-16.55 119.08-15.55 117.03-15.55L117.03-15.55Q113.48-15.55 113.48-18.7L113.48-18.7Q113.48-22.8 118.83-27.13 124.18-31.45 131.4-34.13 138.63-36.8 144.33-36.8L144.33-36.8Q153.38-36.8 153.38-32.35L153.38-32.35Q153.38-29.1 149.05-24.68 144.73-20.25 141.28-18.6L141.28-18.6Q142.83-18.9 144.18-18.9L144.18-18.9Q147.33-18.9 149.03-17.7 150.73-16.5 150.73-14.45L150.73-14.45Q150.73-10.95 148.48-7.6L148.48-7.6Q151.88-6.6 151.88-4.2ZM142.78-7.05L142.78-7.05Q138.98-7.05 134.18-5.45 129.38-3.85 126.15-1.8 122.93 0.25 122.93 1.53 122.93 2.8 126 2.8 129.08 2.8 132.75 1.83 136.43 0.85 140.45-1.43 144.48-3.7 146.63-6.7L146.63-6.7Q144.73-7.05 142.78-7.05ZM143.08-32.15L143.33-31.95Q143.33-31.8 137.5-21.75 131.68-11.7 128.93-7.1L128.93-7.1Q128.63-6.45 127.83-6.1 127.03-5.75 126.6-5.75 126.18-5.75 126.18-5.98 126.18-6.2 129.88-12.43 133.58-18.65 137.25-24.8 140.93-30.95 140.83-31L140.83-31Q141.13-31.5 141.83-31.75L141.83-31.75 143.08-32.15ZM162.32-5.95L162.32-5.95Q162.02-5.95 162.02-6.3L162.02-6.3 162.17-6.65Q163.07-7.5 163.07-8.1L163.07-8.1Q163.07-8.85 162.27-8.85L162.27-8.85Q160.52-8.85 157.55-6.43 154.57-4 154.57-2.1L154.57-2.1Q154.57-1.3 155.62-1.3 156.67-1.3 158.05-2.18 159.42-3.05 160.4-3.93 161.37-4.8 161.47-4.8L161.47-4.8Q161.97-4.75 161.97-4.3L161.97-4.3Q161.97-4.1 161.2-3 160.42-1.9 160.42-1.25L160.42-1.25Q160.42-0.75 161.25-0.75 162.07-0.75 164.17-1.73 166.27-2.7 167.87-3.7L167.87-3.7 169.47-4.7Q169.52-4.6 169.52-4.3 169.52-4 169.07-3.8L169.07-3.8Q162.32 0.8 159.67 0.8L159.67 0.8Q158.37 0.8 158.37-0.5L158.37-0.5Q158.37-1.05 158.57-1.65L158.57-1.65Q158.22-1.25 156.5-0.43 154.77 0.4 153.42 0.4 152.07 0.4 152.07-0.85L152.07-0.85Q152.07-3.8 156.17-6.88 160.27-9.95 163.07-9.95L163.07-9.95Q164.72-9.95 164.72-8.55L164.72-8.55Q164.72-7.75 163.72-6.85 162.72-5.95 162.32-5.95ZM179.92-2.3L179.92-2.3 184.02-4.7Q184.07-4.6 184.07-4.3 184.07-4 183.62-3.8L183.62-3.8Q176.82 0.75 173.92 0.75L173.92 0.75Q171.42 0.75 171.42-2.55L171.42-2.55Q171.42-3.9 171.87-5.03 172.32-6.15 173.32-6.15L173.32-6.15Q176.77-6.15 178.7-7.2 180.62-8.25 180.62-9.38 180.62-10.5 179.02-10.5L179.02-10.5Q175.42-10.5 169.87-4L169.87-4Q168.17-0.8 167.32 0.9L167.32 0.9Q167.07 1.35 166.62 1.35L166.62 1.35Q165.62 1.35 165.62 0.65L165.62 0.65Q165.62 0.35 165.82-0.05L165.82-0.05 170.27-7.85Q174.52-15.35 178.97-21.35 183.42-27.35 185.67-27.35L185.67-27.35Q186.42-27.35 186.72-26.65L186.72-26.65Q186.87-26.4 186.87-26.05L186.87-26.05Q186.87-24.25 183.77-20.4 180.67-16.55 177.97-13.9 175.27-11.25 172.47-8.75L172.47-8.75 171.07-6.25Q176.47-11.75 180.47-11.75L180.47-11.75Q182.77-11.75 182.77-10.25L182.77-10.25Q182.77-8.6 180.2-6.95 177.62-5.3 173.77-5.3L173.77-5.3Q173.22-4.5 173.22-3.5L173.22-3.5Q173.22-0.7 175.42-0.7L175.42-0.7Q177.02-0.7 179.77-2.2L179.77-2.2Q179.87-2.3 179.92-2.3ZM185.22-25.5L185.22-25.5Q185.22-26 184.97-26L184.97-26Q182.22-26 173.52-10.7L173.52-10.7Q177.92-14.75 181.57-18.98 185.22-23.2 185.22-25.5ZM185.37-4.85L185.37-4.85Q182.37-4.85 182.37-6.15L182.37-6.15Q182.37-7.7 185.92-9.83 189.47-11.95 192.32-11.95L192.32-11.95Q193.77-11.95 193.77-11.05L193.77-11.05Q193.77-10.55 193.02-9.95 192.27-9.35 191.57-9 190.87-8.65 190.77-8.65L190.77-8.65Q190.47-8.65 190.37-8.9L190.37-8.9Q190.27-9.25 190.89-9.63 191.52-10 191.52-10.45 191.52-10.9 190.39-10.9 189.27-10.9 186.87-9.33 184.47-7.75 184.47-6.75L184.47-6.75Q184.47-6 186.22-6L186.22-6Q186.52-6 187.32-6.05 188.12-6.1 188.12-5.85 188.12-5.6 185.64-4.05 183.17-2.5 183.17-1.4L183.17-1.4Q183.17-0.15 184.79-0.15 186.42-0.15 188.47-1L188.47-1Q191.77-2.45 194.47-4.1L194.47-4.1 195.42-4.7Q195.47-4.6 195.47-4.3 195.47-4 195.02-3.8L195.02-3.8Q192.37-2 189.22-0.38 186.07 1.25 183.54 1.25 181.02 1.25 181.02-0.43 181.02-2.1 185.37-4.85ZM194.32-3.35L194.32-3.35Q194.12-3.25 193.94-3.25 193.77-3.25 193.77-3.45 193.77-3.65 193.92-3.8L193.92-3.8Q195.97-4.95 198.42-7.55L198.42-7.55Q196.17-8.25 196.17-9.53 196.17-10.8 197.87-12.38 199.57-13.95 201.07-13.95L201.07-13.95Q202.07-13.95 202.07-12.75L202.07-12.75Q202.07-10.9 200.22-8.8L200.22-8.8Q202.62-8.4 202.62-7.65L202.62-7.65Q202.62-6.65 201.74-6.13 200.87-5.6 199.72-4.25 198.57-2.9 198.57-1.55L198.57-1.55Q198.57-1.25 198.77-1 198.97-0.75 199.62-0.75 200.27-0.75 202.37-1.73 204.47-2.7 206.07-3.7L206.07-3.7 207.67-4.7Q207.72-4.6 207.72-4.3 207.72-4 207.27-3.8L207.27-3.8Q200.52 0.8 197.87 0.8L197.87 0.8Q196.57 0.8 196.57-0.5L196.57-0.5Q196.57-1.55 197.29-2.7 198.02-3.85 198.89-4.6 199.77-5.35 200.49-6.03 201.22-6.7 201.22-6.9 201.22-7.1 200.59-7.15 199.97-7.2 198.97-7.4L198.97-7.4Q196.22-4.45 194.32-3.35ZM197.42-10.3L197.42-10.3Q197.42-9.3 199.62-8.9L199.62-8.9Q200.92-10.5 200.92-11.68 200.92-12.85 200.17-12.85 199.42-12.85 198.42-11.98 197.42-11.1 197.42-10.3ZM218.96-9.35Q218.96-9.3 217.84-7.58 216.71-5.85 216.09-4.95 215.46-4.05 210.86 3.45L210.86 3.45Q211.26 3.4 212.16 3.4L212.16 3.4Q214.56 3.4 214.56 4.65L214.56 4.65Q214.56 5.35 213.66 6.3 212.76 7.25 212.26 7.25 211.76 7.25 211.76 6.9L211.76 6.9Q211.76 6.7 212.31 6.28 212.86 5.85 212.86 5.28 212.86 4.7 211.89 4.7 210.91 4.7 210.01 4.85L210.01 4.85Q205.46 12.3 202.16 16.5 198.86 20.7 196.51 20.7L196.51 20.7Q194.81 20.7 194.81 18.95L194.81 18.95Q194.81 15.95 199.34 10.63 203.86 5.3 209.16 3.8L209.16 3.8 213.96-4.5Q211.86-2.6 209.64-1.15 207.41 0.3 206.26 0.3 205.11 0.3 205.11-0.75L205.11-0.75Q205.11-2.35 210.36-9.6L210.36-9.6Q210.61-10 211.01-10L211.01-10Q212.16-9.65 212.16-9.5 212.16-9.35 211.86-8.9L211.86-8.9Q207.36-2.8 207.36-1.85L207.36-1.85Q207.36-1.25 208.04-1.25 208.71-1.25 210.84-2.85 212.96-4.45 214.46-6.1L214.46-6.1 217.26-9.5Q217.56-9.85 218.01-9.85L218.01-9.85Q218.96-9.7 218.96-9.35L218.96-9.35ZM199.66 11.68Q198.21 13.65 197.36 15.43 196.51 17.2 196.51 18.23 196.51 19.25 197.31 19.25L197.31 19.25Q199.81 19.25 208.26 5.25L208.26 5.25Q205.76 6.05 203.44 7.88 201.11 9.7 199.66 11.68Z" opacity="1" transform="matrix(1,0,0,1,0,0)" fill="#ffffff" class="undefined-text-0" data-fill-palette-color="primary" id="text-0"></path></svg></g></svg></g></svg></g></svg></g><g></g></svg></g></svg></g></svg></g><g><path d="M121.756 77.578A122.216 122.216 0 0 1 273.764 77.578L268.126 77.578A116.577 116.577 0 0 0 127.394 77.578L121.756 77.578M121.756 169.622A122.216 122.216 0 0 0 273.764 169.622L268.126 169.622A116.577 116.577 0 0 1 127.394 169.622L121.756 169.622" fill="#085f63" stroke="transparent" data-fill-palette-color="tertiary"></path></g></svg></g><defs></defs></svg><rect width="395.52" height="247.2" fill="none" stroke="none" visibility="hidden"></rect></g></svg></g></svg>