<svg xmlns="http://www.w3.org/2000/svg" version="1.1" xmlns:xlink="http://www.w3.org/1999/xlink" xmlns:svgjs="http://svgjs.dev/svgjs" width="1000" height="1000" viewBox="0 0 1000 1000"><rect width="1000" height="1000" fill="#000000"></rect><g transform="matrix(0.7,0,0,0.7,149.57575757575756,282.1265587044535)"><svg viewBox="0 0 396 247" data-background-color="#046380" preserveAspectRatio="xMidYMid meet" height="623" width="1000" xmlns="http://www.w3.org/2000/svg" xmlns:xlink="http://www.w3.org/1999/xlink"><g id="tight-bounds" transform="matrix(1,0,0,1,0.2400000000000091,-0.09999999999999432)"><svg viewBox="0 0 395.52 247.2" height="247.2" width="395.52"><g><svg></svg></g><g><svg viewBox="0 0 395.52 247.2" height="247.2" width="395.52"><g><path xmlns="http://www.w3.org/2000/svg" d="M55.039 247.2l38.47-66.632h2.442l-37.183 64.402h277.984l-37.183-64.402 2.442 0 38.47 66.632zM197.76 0l38.47 66.632h-2.441l-36.029-62.403-36.029 62.403-2.441 0z" fill="#ffffff" fill-rule="nonzero" stroke="none" stroke-width="1" stroke-linecap="butt" stroke-linejoin="miter" stroke-miterlimit="10" stroke-dasharray="" stroke-dashoffset="0" font-family="none" font-weight="none" font-size="none" text-anchor="none" style="mix-blend-mode: normal" data-fill-palette-color="tertiary"></path></g><g transform="matrix(1,0,0,1,0,82.90885108929729)"><svg viewBox="0 0 395.52 81.38229782140542" height="81.38229782140542" width="395.52"><g><svg viewBox="0 0 395.52 81.38229782140542" height="81.38229782140542" width="395.52"><g transform="matrix(1,0,0,1,0,45.571703226810826)"><svg viewBox="0 0 395.52 35.8105945945946" height="35.8105945945946" width="395.52"><g><svg viewBox="0 0 395.52 35.8105945945946" height="35.8105945945946" width="395.52"><g><svg viewBox="0 0 395.52 35.8105945945946" height="35.8105945945946" width="395.52"><g transform="matrix(1,0,0,1,0,0)"><svg width="395.52" viewBox="1.5 -35.70000076293945 406.9700012207031 36.85000228881836" height="35.8105945945946" data-palette-color="#ffffff"><path d="M26.8-10.65L27.35-22.8 20.75-30.2 15.2-31.55 11.5-30.55 11.2-4.65 20.75-3.7 26.8-10.65ZM21.3-34.3L31.3-23.65 29.7-7.6 21.7 0.4 9-0.5 1.5-0.35 1.65-1.9 7.05-3.15 7.25-31.85 3.75-33.2 3.95-35 8.9-35.25 21.3-34.3ZM53.85-19.15L58.3-23.9 56.5-30.35 49.15-31.65 44-30.85 44.85-19.75 53.85-19.15ZM65.3-9.45L68.45-6.15 62.25-0.6 58.35-1.25 55.7-13 51-16.45 44.5-15.5 44.65-3.1 47.8-2.05 48.2-0.15 37.45-0.3 37.35-1.65 40.3-2.8 39.7-29.25 37.9-31.2 34.3-31.6 34.45-34.3 38.55-34.4 40.65-33.55 41.9-34.65 55.5-34.45 61.8-28.65 60.9-20.3 56.55-17 60.25-13.45 60.6-4.45 61.7-4.05 65.3-9.45ZM97.2-7.3L97.25 0.6 71.25 0.25 71-1.45 76-2.35 74.3-32.15 69.85-33.7 69.45-35.45 96.35-34.8 96.4-28.35 93.85-28.45 93.1-31.6 79.55-31.65 78.6-30.4 78.85-19.65 94.25-18.6 93.8-16.4 79-16.1 78.85-11.95 81.4-3.45 94.05-2.95 94.65-7 97.2-7.3ZM130.14-1.95L130.49 0 120.79 0 119.64-1.2 123.54-2.3 121.99-9.35 120.79-11.65 108.39-10.1 107.59-7.4 106.84-2.3 109.94-1.2 109.94 0.4 99.89-0.35 99.89-1.95 102.94-2.7 112.24-35.3 117.69-34.5 127.44-2.7 130.14-1.95ZM109.54-13.15L119.64-15.1 115.39-30.65 114.64-30.25 109.54-14 109.54-13.15ZM166.19-2.35L169.74-1.25 169.49 0.2 158.89 0.15 158.84-1.35 162.99-2.45 163.59-30.3 162.99-30.4 152.39-0.85 149.54-0.85 139.64-29.65 138.44-29.55 139.94-2.6 143.09-1.6 143.39 0.25 133.04 0.05 132.94-1.25 135.89-2.35 135.49-32.95 132.19-34.1 132.04-35.25 140.29-34.85 141.69-32.6 150.79-5.4 151.24-5.55 160.29-33.4 161.54-35.1 169.49-35.1 169.49-33.5 167.19-32.95 166.19-2.35ZM217.79-31.9L217.64-2.9 220.94-1.8 220.64-0.3 209.34-0.35 209.24-1.95 213.04-2.9 213.14-16.35 196.89-16.35 196.14-2.9 200.09-1.65 200.44 0.35 189.34 0.15 189.19-1.25 192.99-2.65 192.14-32.4 188.74-33.65 188.94-35.1 200.09-35.1 200.44-33.25 196.99-32.3 196.89-20.85 213.44-18.9 213.94-31.95 210.69-33.05 210.24-34.4 220.79-35.1 221.24-34 217.79-31.9ZM240.53-31L231.23-30.7 228.48-20.4 230.98-8.5 237.33-3.05 241.53-2.7 248.13-14.25 245.63-26.15 240.53-31ZM233.23-35.7L243.18-34.8 249.88-27.5 251.68-13.25 244.13 0.35 235.23 0.65 227.13-7.45 225.23-20.05 227.88-32 233.23-35.7ZM277.13-4.85L276.83-0.35 257.03 1.15 256.93 0.1 259.68-1.6 258.83-32.5 255.68-33.55 255.88-34.9 266.83-34.95 267.08-33.15 264.13-32.25 264.03-2.15 273.18-4.1 272.53-7.45 277.08-8 277.13-4.85ZM287.23-2.1L290.18-1 290.28 0.5 280.73-0.25 280.68-1.7 284.13-2.8 283.28-32.75 279.63-34 279.73-35.35 290.43-35.45 290.73-33.65 287.38-32.65 287.23-2.1ZM319.03-10.65L319.58-22.8 312.98-30.2 307.43-31.55 303.73-30.55 303.43-4.65 312.98-3.7 319.03-10.65ZM313.53-34.3L323.53-23.65 321.93-7.6 313.93 0.4 301.23-0.5 293.73-0.35 293.88-1.9 299.28-3.15 299.48-31.85 295.98-33.2 296.18-35 301.13-35.25 313.53-34.3ZM355.42-1.95L355.77 0 346.07 0 344.92-1.2 348.82-2.3 347.27-9.35 346.07-11.65 333.67-10.1 332.87-7.4 332.12-2.3 335.22-1.2 335.22 0.4 325.17-0.35 325.17-1.95 328.22-2.7 337.52-35.3 342.97-34.5 352.72-2.7 355.42-1.95ZM334.82-13.15L344.92-15.1 340.67-30.65 339.92-30.25 334.82-14 334.82-13.15ZM368.27-3L371.62-1.95 371.87-0.1 361.37-0.3 361.27-1.5 364.82-2.9 364.67-15.35 354.52-32.65 351.82-33.7 351.97-35 362.47-35.2 362.12-33.35 360.37-32.75 366.87-19.45 375.42-33.1 372.22-33.95 372.32-35.45 383.07-35.5 383.32-34.05 379.22-32.75 367.97-15.7 368.27-3ZM388.97-34.3L401.27-35.2 404.42-33.05 405.82-35 408.47-32.9 403.77-27.25 401.87-29 399.47-32.1 391.97-30.9 388.02-26.9 391.07-21.25 404.02-17.85 407.07-14.1 406.17-4.35 395.82 0.45 386.67-2.05 385.12 0.45 382.07-0.25 385.12-6.95 387.67-6.2 395.57-3.65 403.37-6.75 401.87-14.5 386.52-17.65 383.67-28.1 388.97-34.3Z" opacity="1" transform="matrix(1,0,0,1,0,0)" fill="#ffffff" class="undefined-text-0" data-fill-palette-color="primary" id="text-0"></path></svg></g></svg></g></svg></g></svg></g><g transform="matrix(1,0,0,1,166.9364846842545,0)"><svg viewBox="0 0 61.64703063149094 37.11768129729731" height="37.11768129729731" width="61.64703063149094"><g><svg version="1.1" xmlns="http://www.w3.org/2000/svg" xmlns:xlink="http://www.w3.org/1999/xlink" x="8" y="0" viewBox="0 0.0002883635461330414 99.99897003173828 81.313720703125" enable-background="new 0 0 100 81.314" xml:space="preserve" width="45.64703063149094" height="37.11768129729731" class="icon-icon-0" data-fill-palette-color="accent" id="icon-0"><path fill="#ffffff" d="M39.74 2.399l-0.255-1.1c1.479-0.344 2.989-0.619 4.49-0.83l0.158 1.121C42.664 1.793 41.185 2.068 39.74 2.399z" data-fill-palette-color="accent"></path><path fill="#ffffff" d="M61.917 2.333c-1.442-0.328-2.919-0.587-4.403-0.777l0.15-1.122c1.515 0.195 3.027 0.464 4.497 0.795L61.917 2.333z" data-fill-palette-color="accent"></path><path fill="#ffffff" d="M48.589 1.184l-0.053-1.129c1.524-0.071 3.071-0.071 4.572-0.011l-0.042 1.132C51.574 1.114 50.075 1.114 48.589 1.184z" data-fill-palette-color="accent"></path><path fill="#ffffff" d="M7.252 77.205c0.784 1.306 1.633 2.586 2.525 3.809l0.914-0.669c-0.872-1.192-1.704-2.441-2.473-3.722L7.252 77.205z" data-fill-palette-color="accent"></path><path fill="#ffffff" d="M3.267 68.983c0.54 1.431 1.146 2.845 1.806 4.199l1.015-0.493c-0.642-1.324-1.236-2.707-1.766-4.102L3.267 68.983z" data-fill-palette-color="accent"></path><path fill="#ffffff" d="M0.826 60.179c0.275 1.498 0.617 2.999 1.022 4.455l1.09-0.301c-0.396-1.427-0.731-2.893-1-4.358L0.826 60.179z" data-fill-palette-color="accent"></path><path fill="#ffffff" d="M1.13 51.082H0c0.002 1.518 0.073 3.054 0.21 4.569l1.125-0.102C1.2 54.065 1.131 52.564 1.13 51.082z" data-fill-palette-color="accent"></path><path fill="#ffffff" d="M1.906 42.183l-1.113-0.2c-0.264 1.493-0.467 3.015-0.6 4.535l1.125 0.096C1.449 45.129 1.645 43.637 1.906 42.183z" data-fill-palette-color="accent"></path><path fill="#ffffff" d="M4.255 33.562l-1.059-0.393c-0.533 1.435-1.005 2.896-1.402 4.349l1.091 0.299C3.274 36.398 3.736 34.967 4.255 33.562z" data-fill-palette-color="accent"></path><path fill="#ffffff" d="M8.117 25.509l-0.972-0.577c-0.776 1.302-1.502 2.658-2.16 4.031l1.019 0.485C6.647 28.111 7.358 26.781 8.117 25.509z" data-fill-palette-color="accent"></path><path fill="#ffffff" d="M9.661 21.114l0.915 0.662c0.871-1.202 1.807-2.379 2.782-3.5l-0.853-0.743C11.506 18.677 10.55 19.885 9.661 21.114z" data-fill-palette-color="accent"></path><path fill="#ffffff" d="M19.088 11.207c-1.179 0.943-2.336 1.959-3.433 3.01l0.782 0.821c1.075-1.034 2.207-2.031 3.357-2.949L19.088 11.207z" data-fill-palette-color="accent"></path><path fill="#ffffff" d="M86.074 14.006c-1.095-1.042-2.256-2.048-3.447-2.998l-0.707 0.888c1.172 0.926 2.305 1.911 3.379 2.93L86.074 14.006z" data-fill-palette-color="accent"></path><path fill="#ffffff" d="M27.234 7.137l-0.54-0.989c-1.324 0.715-2.641 1.509-3.916 2.357l0.628 0.936C24.651 8.614 25.939 7.842 27.234 7.137z" data-fill-palette-color="accent"></path><path fill="#ffffff" d="M78.917 8.329c-1.266-0.831-2.585-1.616-3.935-2.336L74.454 6.99C75.764 7.69 77.059 8.46 78.3 9.272L78.917 8.329z" data-fill-palette-color="accent"></path><path fill="#ffffff" d="M35.434 3.599l-0.354-1.072c-1.455 0.477-2.894 1.024-4.272 1.621l0.446 1.038C32.604 4.601 34.013 4.071 35.434 3.599z" data-fill-palette-color="accent"></path><path fill="#ffffff" d="M70.862 4.023c-1.392-0.586-2.834-1.125-4.288-1.593l-0.345 1.077c1.423 0.455 2.831 0.981 4.191 1.559L70.862 4.023z" data-fill-palette-color="accent"></path><path fill="#ffffff" d="M99.129 26.774l-2.716-2.711 1.117-9.237-1.241-1.23-3.197 7.139-1.85-1.846c-0.161-0.163-0.379-0.287-0.609-0.361l0.624-3.083-0.992-0.993-1.476 3.457-3.455 1.474 0.989 0.994 3.087-0.624c0.075 0.229 0.199 0.446 0.362 0.61l1.85 1.85-7.144 3.201 1.227 1.236 9.245-1.112 2.707 2.711c0.5 0.507 1.162 0.816 1.873 0.867 0.124 0 0.247-0.036 0.339-0.124 0.084-0.089 0.138-0.211 0.129-0.335C99.946 27.94 99.636 27.278 99.129 26.774z" data-fill-palette-color="accent"></path><path fill="#ffffff" d="M51.09 15.112c-18.253 0-33.101 14.848-33.101 33.101 0 18.251 14.848 33.101 33.101 33.101 18.251 0 33.101-14.85 33.101-33.101C84.191 29.96 69.341 15.112 51.09 15.112zM78.073 53.609c0.601 0.607 0.87 1.167 0.991 1.774C75.867 67.848 64.537 77.089 51.09 77.089c-4.979 0-9.666-1.267-13.759-3.494 0.041-0.179 0.081-0.361 0.121-0.555 0.244-1.177 2.063-1.742 2.844-2.521 0.761-0.762 2.275-1.223 2.745-2.219 0.308-0.653-0.128-1.49 0.134-2.099 0.199-0.458 0.958-0.957 1.314-1.314 0.894-0.894 1.564-3.22 1.564-4.442-1.338 0-2.675 0-4.012 0-1.267 0-1.021-1.498-1.026-2.429-0.001-0.5 0.031-1.111-0.212-1.568-0.277-0.52-1.174-0.368-1.655-0.612-0.837-0.425-1.531-1.257-1.695-2.192-0.108-0.613-0.086-1.062-0.857-1.032-0.758 0.032-1.462 0.639-2.167 0.639-0.885 0-1.77 0-2.655 0-1.957 0-3.914 0-5.869 0 0 0.317-0.18 1.349 0.109 1.494 0.723 0.36 1.445 0.722 2.167 1.083 1.078 0.54 1.394 1.889 1.921 2.941 0.518 1.036 1.105 2.054 1.559 3.116 0.562 1.314 0.97 2.777 1.993 3.833 0.431 0.445 1.267 0.354 1.45 0.967 0.232 0.77-0.007 1.71-0.184 2.468-0.196 0.839-0.442 1.668-0.659 2.502-5.966-4.296-10.229-10.807-11.581-18.319 0.402-0.031 0.805-0.085 1.039-0.085 0.78 0 0.804-0.058 1.369-0.621 0.495-0.495 0.817-0.642 0.817-1.324 0-0.79 0-1.583 0-2.372 0.96 0.479 1.918 0.96 2.878 1.438 0.042-1.163 0.873-1.312 1.831-1.473 1.138-0.188 1.887-1.405 2.941-1.405 0.869 0 1.23 0.166 2.046 0.43 0.428 0.141 0.965 0.304 1.412 0.165 0.601-0.188 0.459-1.261 0.667-1.743 0.299-0.697 0.754-1.683 1.56-1.75 0.876-0.07 2.012-0.465 1.056-1.419-1.049-1.049-1.833-2.387-2.542-3.68-0.303-0.555-0.379-1.43-0.89-1.813-1.116-0.838-2.792 0.298-3.63 1.05-0.471 0.425 0.268 1.402-0.379 1.675-1.052 0.446-2.425 0.804-3.511 0.285-0.592-0.283-0.958-0.977-1.63-1.101-0.464-0.084-0.37-0.214-0.37-0.734 0-0.876 0-1.754 0-2.631 0-0.364 0.101-0.221 0.432-0.316 1.303-0.374 0.534-2.07 1.825-2.091 1.497-0.025 0.019-2.576-0.386-3.096-0.227-0.292-0.453-0.423-0.7-0.482 5.295-6.638 13.444-10.903 22.576-10.903 8.311 0 15.809 3.534 21.082 9.173-1.552 1.686-3.22 3.605-4.354 4.456-0.778 0.583-1.786 0.937-2.655 1.371-0.867 0.435-2.043 0.202-2.993 0.202-0.247 0-3.165-0.04-3.165 0.036 0 0.865 0.433 2.625-0.402 3.044-0.997 0.498-2.116 0.878-2.909 1.669-0.225 0.225-1.146 0.867-0.881 1.133 0.001 0.001 0.002 0.002 0.004 0.003-0.145-0.078-0.294-0.128-0.449-0.123-1.129 0.038-2.53 0.086-3.514 0.708-0.624 0.394-0.455 0.99-0.538 1.645-0.094 0.736-0.325 1.515-0.854 2.06-0.632 0.652-0.531 0.759-0.531 1.817 1.119-0.124 2.24-0.249 3.362-0.372 0.132-0.018 0.955-0.022 0.955-0.169 0-0.278-0.157-1.22 0.034-1.411 0.424-0.424 0.853-0.853 1.28-1.28 0.259-0.259 0.73 0.48 0.942 0.693 0.39 0.389 0.771 0.472 0.357 0.882-0.391 0.394-0.784 0.787-1.175 1.178 0.174 0 1.437 0.047 1.44-0.033 0.051-1.074 0.701-2.108 1.438-2.845 0.796-0.796 1.887-0.805 2.745-0.117 0.347 0.28 0.134 1.179 0.134 1.556 0 0.253-0.07 2.878 0.062 2.878 0.633 0 1.185 0.146 1.67-0.265 1.667-1.403 3.848-1.067 5.464-2.613 0.479 0.959 0.96 1.918 1.439 2.878-1.143 0.382-2.287 0.762-3.43 1.143-0.09 0.029-0.862 0.346-0.902 0.269-0.261-0.513-0.539-1.039-0.894-1.495-0.472-0.607-0.59-0.08-0.497 0.478 0.151 0.922 0.736 1.785 1.371 2.451 0.666 0.698 1.039 2.043 1.473 2.912-0.09-1.769 2.485 1.045 2.879 1.438 0.608-0.608 1.22-1.22 1.827-1.826 0.304-0.304 0.604-0.604 0.905-0.905 0.244-0.245-0.028-0.315-0.216-0.579-1.016-1.42 1.593-1.007 2.386-1.007 1.498 0 2.637 0.391 3.732 1.439C76.322 51.74 77.753 53.287 78.073 53.609z" data-fill-palette-color="accent"></path><path fill="#ffffff" d="M52.289 37.419c-0.318 0.32-0.64 0.639-0.958 0.96-0.328 0.12-0.87 0.143-0.89 0.521-0.024 0.467-0.045 0.931-0.07 1.398 0.627-0.313 1.254-0.627 1.88-0.939C52.451 39.258 52.289 37.697 52.289 37.419z" data-fill-palette-color="accent"></path><path fill="#ffffff" d="M55.143 35.98c0.357 0 0.984 0.2 0.984-0.225 0-0.009 0-0.019 0-0.027 0.069 0.137 0.193 0.223 0.386 0.241-0.115 0.484-0.241 0.968-0.386 1.451 0.438-0.438 0.874-0.875 1.313-1.314 0.294-0.294 0.125-1.03 0.125-1.42 0-0.068 0-0.137 0-0.206 0-0.938 0-1.878 0-2.817-0.027 0.055-0.075 0.144-0.132 0.248-0.018-0.203-0.027-0.402-0.048-0.607-0.056 0.337-0.111 0.671-0.167 1.006-0.368 0.688-0.897 1.733-1.092 2.534 0-0.121 0-0.242 0-0.363 0-0.938 0-1.878 0-2.817C55.836 32.244 53.612 35.98 55.143 35.98z" data-fill-palette-color="accent"></path><path fill="#ffffff" d="M68.034 58.973c0.94-0.157 1.805-0.756 2.485-1.405-1.067-0.355-2.131-0.711-3.199-1.066-1.194-0.398-1.197-0.527-1.775-1.686-0.453-0.909-0.766-1.549-1.471-2.254-0.515-0.515-2.19-1.66-2.19-2.415 0-1.149 0.223-1.214-0.853-1.214-1.348 0-2.695 0-4.044 0-2.206 0-4.411 0-6.616 0-0.87 0.882-1.714 1.841-2.353 2.906-1.137 1.895 0.285 2.842 1.53 4.205 1.332 1.457 0.816 3.931 3.308 4.368 0.889 0.154 1.894 0.033 2.794 0.033 0.107 0 2.08-0.278 1.89-0.624 0.209 0.375 0.094 1.417 0.168 1.872 0.169 1.021 0.39 2.035 0.616 3.044 0.267 1.203 0.683 2.39 0.683 3.624 0 1.269 1.321 2.04 2.189 2.909 0.33 0.33 0.519 0.688 0.988 0.688 0.811 0 1.626 0 2.438 0 0.404 0-0.35-4.992 0.929-5.623 0.365-0.18 1.087 0.021 1.303-0.396 0.149-0.283-0.014-0.631 0.135-0.913 0.358-0.69 1.203-0.016 1.285-1.152 0.064-0.922-0.099-2.825-0.749-3.555C66.734 59.431 66.98 59.15 68.034 58.973z" data-fill-palette-color="accent"></path><path fill="#ffffff" d="M46.035 28.767c-0.732-0.723-1.521-1.408-2.367-1.996-1.143-0.794-2.004-0.865-3.372-0.865-0.654 0-1.321-0.045-1.973 0.008-0.281 0.023-0.172 0.337-0.253 0.545-0.491 1.256-2.532 2.765-3.531 3.764 1.382 0 2.153 2.867 2.677 3.915 0.315 0.629 0.202 1.283 0.202 1.986 0 1.029-0.089 1.207 0.622 1.918 0.706 0.706 0.646 0.989 1.343 0.292 0.701-0.701 1.401-1.401 2.101-2.101 0.46-0.462 0.251-1.21 0.251-1.836 0-0.924-0.328-1.295 0.607-1.295 0.718 0 1.392 0.064 1.97-0.432 0.438-0.378 0.779-0.854 1.381-0.973 0.668-0.132 2.08-0.371 1.798-1.474C47.377 29.776 46.377 29.105 46.035 28.767z" data-fill-palette-color="accent"></path></svg></g></svg></g><g><rect width="166.9364846842545" height="3.2294363770741623" y="32.888244920223144" x="228.58351531574544" fill="#ffffff" data-fill-palette-color="accent"></rect><rect width="166.9364846842545" height="3.2294363770741623" y="32.888244920223144" x="0" fill="#ffffff" data-fill-palette-color="accent"></rect><rect width="166.9364846842545" height="3.2294363770741623" y="26.42937216607482" x="228.58351531574544" fill="#ffffff" data-fill-palette-color="accent"></rect><rect width="166.9364846842545" height="3.2294363770741623" y="26.42937216607482" x="0" fill="#ffffff" data-fill-palette-color="accent"></rect></g></svg></g></svg></g></svg></g><defs><mask id="9ea758b0-9308-4005-a2b4-79210ead65d0"><rect width="640" height="400" fill="white"></rect><rect width="348.05760000000004" height="37.960422488650174" fill="black" x="145.97119999999998" y="181.0197887556749" id="transform-me" transform="matrix(1,0,0,1,-160,-20)"></rect></mask></defs></svg><rect width="395.52" height="247.2" fill="none" stroke="none" visibility="hidden"></rect></g></svg></g></svg>